<svg id="OBJECTS" xmlns="http://www.w3.org/2000/svg"  viewBox="0 0 411.313 411.313"><path class="cls-1" d="m330.85,0H80.462C36.024,0,0,36.024,0,80.462v250.388c0,44.438,36.024,80.462,80.462,80.462h250.388c44.438,0,80.462-36.024,80.462-80.462V80.462c0-44.438-36.024-80.462-80.462-80.462Zm-73.291,298.803c-11.51,0-23.024-.152-34.529.095-3.36.072-4.827-1.38-5.748-4.135-3.429-10.256-6.851-20.515-10.284-30.77-.735-2.195-1.503-4.378-2.255-6.567.339-1.127,1.203-2.43.898-3.343-.502-1.504-1.76-2.755-2.699-4.112-.206.194-.412.388-.618.582-22.981.025-45.961.043-68.941.093-1.153.003-2.306.276-3.459.424-.468-.062-.936-.124-1.404-.185l.298,3.643-4.24,12.345c-2.803.849-3.857,4.465-2.254,7.728-1.413,4.115-2.827,8.23-4.24,12.345-2.802.849-3.857,4.465-2.254,7.728-.265.758-.53,1.516-.795,2.275-1.378.153-3.174-.537-3.504,1.734-12.005,0-24.01,0-36.015-.001-.675-1.186-1.35-2.372-2.024-3.558.144-.568.287-1.135.431-1.703,3.251-.917,4.376-4.104,2.293-6.494.937-2.759,1.875-5.519,2.812-8.278,2.477.226,2.898-1.837,3.318-3.409.235-.88-.622-2.052-.987-3.093.797-2.359,1.594-4.718,2.391-7.077,2.698.192,2.849-2.05,3.25-3.729.193-.805-.582-1.842-.919-2.773.871-2.551,1.742-5.102,2.612-7.654,1.096-1.043,2.435-1.943,3.171-3.197.306-.521-.672-1.797-1.066-2.73.871-2.551,1.742-5.101,2.613-7.652,2.196.081,2.834-1.551,3.06-3.183.118-.855-.606-1.826-.95-2.744.87-2.551,1.741-5.101,2.611-7.652,3.248-.92,4.372-4.106,2.29-6.494.81-2.362,1.62-4.723,2.43-7.085,1.947-.531,4.383-4.242,3.74-5.877-.135-.344-.952-.42-1.455-.62l2.819-8.276c2.478.227,2.899-1.836,3.319-3.408.235-.881-.622-2.053-.987-3.093.871-2.551,1.742-5.103,2.612-7.654,2.193.077,2.827-1.554,3.053-3.182.119-.854-.602-1.825-.944-2.743.87-2.551,1.74-5.102,2.611-7.654,1.096-1.043,2.436-1.943,3.173-3.196.306-.521-.672-1.798-1.066-2.73.87-2.551,1.741-5.101,2.611-7.652,2.196.081,2.836-1.549,3.061-3.182.118-.855-.606-1.826-.95-2.745.87-2.551,1.741-5.101,2.611-7.652,2.198.082,2.837-1.552,3.062-3.185.118-.854-.61-1.825-.956-2.743,1.17-3.202,2.34-6.404,3.509-9.606,1.875,1.558,1.888-.591,2.264-1.316.761-1.469,1.912-3.187-.447-4.424.46-1.371.92-2.742,1.38-4.113.729-.387,1.458-.773,2.186-1.16-.417-.609-.834-1.218-1.251-1.827.266-1.366.531-2.732.797-4.098.725-.468,1.45-.936,2.174-1.404l-1.501-.96c.104-1.389.208-2.777.312-4.166.611-.397,1.222-.795,1.833-1.193l-1.595-1.725c-.112-3.917-.02-4.027,3.815-4.029,15.12-.005,30.24-.005,45.36.005.878,0,1.755.108,2.633.165.58,1.647,1.065,3.339,1.808,4.909.182.384,1.207.369,1.844.538.72,2.03,1.44,4.059,2.159,6.089-1.797,2.007-1.4,3.092,1.482,4.061.485,1.402.971,2.803,1.456,4.205-.173,1.145-.428,2.29-.43,3.435,0,.173,1.184.347,1.821.521.718,2.027,1.437,4.054,2.155,6.081-.172,1.148-.421,2.296-.428,3.446-.001.159,1.19.325,1.83.488.575,1.83,1.15,3.66,1.725,5.49-.264.693-.528,1.386-.793,2.079l2.001.723c.72,2.025,1.439,4.05,2.159,6.075-1.821,1.989-1,4.384,1.82,5.312.578,1.575,1.155,3.149,1.733,4.724-1.8,2.009-1.401,3.098,1.488,4.059.483,1.402.966,2.804,1.45,4.207-1.814,1.991-.994,4.382,1.82,5.312.577,1.575,1.153,3.149,1.73,4.724-.292.871-.832,1.762-.761,2.603.03.358,1.335.608,2.061.908.608,1.971,1.216,3.943,1.824,5.914-.546.429-1.093.858-1.639,1.288,1.03.353.885,2.922,2.85,1.51l2.154,6.079c-1.771,2.023-1.017,4.279,1.776,5.313,4.309,11.856,8.648,23.701,12.919,35.571,3.361,9.342,6.66,18.706,9.944,28.075,3.932,11.217,7.867,22.434,11.707,33.683,2.26,6.62,2.178,6.648-4.745,6.648Zm71.219-148.872c0,48.186.005,96.371-.024,144.557,0,1.434-.363,2.868-.556,4.303-.171.174-.343.348-.514.522-.74.184-1.48.529-2.22.529-12.264.007-24.528-.029-36.792-.055-.508-.556-1.016-1.111-1.524-1.667-.6-.425-1.199-.849-1.798-1.274-.022-18.192-.057-36.384-.064-54.575-.011-31.272.025-62.543-.053-93.814-.007-2.733,1.05-3.723,3.596-3.719,12.194.021,24.389.031,36.583-.009,2.218-.007,3.261,1.005,3.353,3.138.03.687.013,1.377.013,2.065Zm-.492-33.309c-3.565,7.428-10.187,11.277-18.222,11.999-9.828.883-18.041-2.383-23.396-11.16-6.537-10.714-4.394-23.32,3.922-31.102,1.455-1.362,3.414-2.185,5.139-3.257.2.006.399.012.599.018,6.219-3.961,12.94-3.434,19.506-1.582,5.13,1.447,9.235,4.293,12.049,9.469,4.726,8.693,4.452,17.177.402,25.616Z"/><path class="cls-1" d="m185.05,187.409c-.084-1.423-.923-2.323-2.545-2.03-.391-1.378-.782-2.755-1.173-4.133.478-.508,1.382-1.041,1.354-1.519-.084-1.431-.937-2.313-2.553-2.023-.688-2.344-1.376-4.688-2.065-7.032.385-.717,1.112-1.449,1.082-2.149-.061-1.433-.937-2.321-2.558-2.036-.664-2.151-1.327-4.302-1.991-6.453.311-1.038,1.03-2.179.803-3.081-.179-.713-1.522-1.133-2.348-1.683-.28-.971-.56-1.941-.839-2.912.422-.608.845-1.216,1.267-1.823-.729-.39-1.458-.779-2.187-1.169-.175-.589-.351-1.179-.526-1.768.494-.32.989-.64,1.483-.959-.716-.468-1.432-.937-2.148-1.405-.206-.59-.412-1.18-.618-1.77.527-.3,1.053-.599,1.58-.899-.711-.488-1.422-.976-2.133-1.464-.088-.376-.175-.753-.263-1.129,1.828-1.861,1.693-2.307-.909-3.004-.091-.38-.182-.76-.272-1.139.424-.604.848-1.209,1.271-1.813-.722-.394-1.444-.787-2.166-1.181-.322-.541-.643-1.083-1.108-1.865-.763,1.423-1.633,2.469-1.899,3.651-.745,3.316-1.241,6.687-1.836,10.037-.587.331-1.672.684-1.659.988.029.663.618,1.301.979,1.949-.158.394-.316.788-.474,1.182-.595.328-1.685.662-1.681.983.008.66.601,1.312.953,1.968-.548,1.581-1.097,3.163-1.645,4.744-.765.776-1.529,1.552-2.294,2.328.504.398,1.009.797,1.513,1.195-.528,1.383-1.056,2.767-1.584,4.151-2.493.779-2.975,2.287-1.316,4.112-.543,1.779-1.087,3.557-1.63,5.336-.765.775-1.531,1.549-2.296,2.324.503.399,1.006.799,1.509,1.198-.723,1.974-1.445,3.949-2.168,5.923-1.513.444-2.837.943-.723,2.455-.15.552-.3,1.104-.45,1.657-1.483.46-2.862.95-.73,2.476-.15.552-.3,1.105-.451,1.657-2.338.718-2.709,1.874-.791,3.542-.919,2.566-1.837,5.132-2.756,7.697-2.185.798-3.009,2.04-1.339,4.097-.202,1.114-.404,2.228-.607,3.342.046.422.092.845.138,1.267,15.925,0,31.85,0,47.775,0,.05-.429.099-.858.149-1.287-2.164-7.007-4.327-14.013-6.491-21.02.481-.506,1.39-1.037,1.362-1.512Z"/></svg>