<svg id="OBJECTS" xmlns="http://www.w3.org/2000/svg" viewBox="0 0 411.313 411.313"><path class="cls-1" d="m166.949,135.069c-11.86-1.53-23.924-1.486-35.902-2.076-.36-.018-.748.52-1.123.799-.288,1.233-.823,2.465-.827,3.7-.055,16.873-.055,33.747,0,50.62.004,1.234.539,2.466.827,3.7,1.074.64,2.18,1.883,3.216,1.826,9.502-.515,19.131-.464,28.454-2.107,16.067-2.831,29.027-15.981,25.47-35.059-1.907-10.226-9.83-20.076-20.114-21.403Z"/><path class="cls-1" d="m330.783,0H80.53C36.054,0,0,36.054,0,80.53v250.254c0,44.475,36.054,80.53,80.53,80.53h250.254c44.475,0,80.53-36.054,80.53-80.53V80.53c0-44.475-36.054-80.53-80.53-80.53Zm-110.31,191.558c-8.051,17.422-22.759,27.111-40.744,31.952-7.812,2.103-15.958,3.339-24.032,4-8.458.693-17.011.223-25.523.262-.372,1.656-1.057,3.309-1.068,4.967-.114,17.887-.121,35.775-.158,53.663-1.219.373-2.436,1.061-3.658,1.069-11.474.083-22.95.049-34.806.049V98.945c3.621-.32,7.457-.929,11.296-.952,17.638-.105,35.281-.289,52.914.021,18.12.319,35.146,4.245,49.936,15.732,10.132,7.87,16.497,17.953,19.75,30.064,4.383,16.317,3.165,32.44-3.909,47.747Zm111.796-10.87c-13.05-.134-25.671,1.584-37.031,8.873-3.147,2.019-4.367,4.083-4.345,7.928.16,28.556-.027,57.113.048,85.67.01,3.688-1.532,4.46-4.802,4.413-9.983-.141-19.974-.242-29.951.039-4.243.12-5.368-1.314-5.348-5.421.149-30.252.178-60.506.035-90.758-.061-12.971-.568-25.942-.999-38.908-.09-2.705-.74-5.392-1.218-8.679,11.486,0,21.966-.226,32.42.2,1.984.081,4.865,2.374,5.583,4.297,1.507,4.04,1.853,8.512,2.628,12.559,5.732-4.124,11.377-9.22,17.914-12.587,6.05-3.117,12.929-5.392,19.669-6.237,10.872-1.364,10.951-.74,10.951,10.645,0,7.48-.104,14.962.042,22.439.078,4.02-1.497,5.569-5.596,5.527Z"/></svg>