<svg id="OBJECTS" xmlns="http://www.w3.org/2000/svg"  viewBox="0 0 411.313 411.313"><path class="cls-1" d="m172.53,145.379c-5.964-3.39-12.5-5.031-19.294-5.254-7.047-.231-14.108-.019-21.163.015-.755.004-1.509.113-2.314.177v58.065c1.563.064,2.988.17,4.414.174,5.729.016,11.456.219,17.187-.177,2.18-.151,4.325-.381,6.417-.94,3.718-.994,7.461-1.945,11.089-3.213,2.786-.974,5.055-2.919,7.361-4.771,3.385-2.718,5.788-6.108,7.011-10.188,1.878-6.263,2.242-12.654.483-19.035-1.767-6.409-5.35-11.532-11.191-14.852Z"/><path class="cls-1" d="m330.85,0H80.462C36.024,0,0,36.024,0,80.462v250.388c0,44.438,36.024,80.462,80.462,80.462h250.388c44.438,0,80.462-36.024,80.462-80.462V80.462c0-44.438-36.024-80.462-80.462-80.462Zm-108.694,173.358c-.167,2.29-.398,4.568-.943,6.855-.592,2.481-.948,5.039-1.675,7.504-.603,2.043-1.175,4.103-1.935,6.089-1.955,5.107-4.928,9.637-8.366,13.842-7.721,9.444-17.602,15.617-29.252,19.088-7.097,2.115-14.342,3.328-21.712,3.92-8.146.654-16.296.52-24.45.249-1.403-.047-2.809-.007-4.403-.007v2.486c0,17.154,0,34.308,0,51.462,0,.518.029,1.038-.01,1.553-.103,1.345-.729,1.99-2.049,2.114-.45.042-.906.02-1.359.02-10.166,0-20.332,0-30.498,0-.324,0-.648.008-.971-.004-1.927-.067-2.414-.54-2.482-2.416-.014-.388-.003-.777-.003-1.165,0-58.195,0-116.389,0-174.583,0-3.248.047-3.243,3.212-3.313,9.124-.202,18.245-.549,27.369-.655,11.263-.13,22.529-.188,33.79-.032,3.61.05,7.223.792,10.809,1.379,3.268.535,6.517,1.216,9.743,1.97,1.964.46,3.919,1.054,5.787,1.813,3.018,1.225,6.012,2.533,8.923,3.993,4.02,2.016,7.708,4.56,11.07,7.562.902.805,1.827,1.584,2.745,2.37,3.158,2.702,5.302,6.215,7.671,9.551,3.778,5.32,5.605,11.406,7.195,17.631,1.743,6.827,2.304,13.73,1.794,20.723Zm113.381,95.811c-4.726,8.021-11.596,13.633-20.109,17.288-6.771,2.907-13.865,4.497-21.184,5.183-8.997.844-17.982.658-26.923-.534-7.958-1.061-15.81-2.662-23.174-6.06-.352-.162-.714-.301-1.064-.468-1.551-.739-2.306-1.895-2.28-3.689.068-4.789.023-9.58.023-14.37,0-4.661,0-9.322,0-13.982,0-.453-.028-.909.011-1.359.138-1.597.926-2.059,2.34-1.336,1.783.912,3.521,1.911,5.315,2.801,7.245,3.596,14.982,5.628,22.895,7.038,4.85.864,9.76,1.232,14.685,1.115,4.014-.095,8.012-.435,11.819-1.893,3.13-1.199,5.17-3.293,5.737-6.716.321-1.938-.289-3.567-1.335-5.101-1.422-2.085-3.387-3.59-5.598-4.696-3.174-1.588-6.407-3.069-9.673-4.462-4.868-2.076-9.866-3.863-14.663-6.087-6.638-3.078-13.038-6.633-18.472-11.632-5.117-4.707-9.028-10.226-11.173-16.944-1.708-5.347-1.812-10.806-1.307-16.274.671-7.268,3.423-13.799,7.858-19.59,3.61-4.715,8.04-8.434,13.318-11.25,4.498-2.399,9.125-4.305,14.105-5.376,3.433-.738,6.895-1.143,10.394-1.487,3.287-.323,6.555-.461,9.835-.418,3.621.048,7.247.187,10.856.481,2.812.229,5.591.971,8.402,1.091,3.112.133,6.043,1.013,9.014,1.691,2.319.529,4.565,1.455,6.77,2.38,1.46.612,1.812,2.153,1.822,3.522.068,9.256.047,18.513.022,27.77-.003,1.194-.869,2.064-2.085,2.075-.807.007-1.699-.118-2.411-.472-6.963-3.461-14.343-5.442-22.006-6.6-4.418-.668-8.829-1.09-13.295-1.168-3.719-.065-7.349.385-10.922,1.34-3.787,1.013-5.943,3.731-6.358,7.64-.159,1.492.42,3.039,1.371,4.265,1.277,1.646,2.779,3.094,4.534,4.246,3.238,2.125,6.785,3.638,10.35,5.093,5.8,2.367,11.71,4.486,17.419,7.051,6.015,2.703,11.866,5.805,17.015,10,8.065,6.571,12.688,14.967,13.435,25.461.619,8.693-.871,16.895-5.312,24.43Z"/></svg>