<svg id="OBJECTS" xmlns="http://www.w3.org/2000/svg" width="350" height="353.925" viewBox="0 0 350 353.925"><defs><style>.cls-1{fill:#222221;}</style></defs><path class="cls-1" d="m343.935,130.944c-8.751-32.705-27.161-62.685-52.245-85.316-12.54-11.313-26.692-20.83-41.904-28.152-15.208-7.329-31.476-12.45-48.119-15.159-16.648-2.722-33.63-3.059-50.332-.942-4.175.52-8.334,1.18-12.459,2.013-4.129.807-8.227,1.778-12.279,2.904-8.108,2.244-16.041,5.095-23.73,8.473-15.391,6.744-29.7,15.82-42.452,26.636-12.713,10.866-23.873,23.504-32.921,37.479-4.52,6.988-8.565,14.272-12.027,21.817-3.449,7.549-6.368,15.328-8.69,23.269C2.145,139.852-.122,156.353.005,172.747c.168,16.387,2.64,32.704,7.478,48.213,2.426,7.75,5.402,15.301,8.891,22.578,3.538,7.254,7.549,14.252,12.105,20.848.834,1.209,2.459,1.633,3.791.931,1.438-.757,1.99-2.536,1.234-3.974l-.006-.011c-3.603-6.847-6.794-13.871-9.422-21.082-2.678-7.187-4.831-14.541-6.442-21.987-3.265-14.883-4.394-30.119-3.521-45.168.92-15.045,3.888-29.873,8.866-43.934,4.944-14.071,11.893-27.367,20.487-39.428,17.18-24.144,41.131-43.181,68.23-54.347,6.771-2.795,13.73-5.121,20.82-6.912,3.543-.901,7.109-1.712,10.708-2.352,3.592-.672,7.213-1.19,10.845-1.587,14.527-1.588,29.302-1.17,43.672,1.295,14.377,2.463,28.377,7,41.448,13.432,13.074,6.426,25.215,14.739,35.945,24.582,10.736,9.834,20.113,21.156,27.677,33.584,7.574,12.419,13.351,25.918,17.09,39.96,3.738,14.043,5.454,28.615,5.162,43.179-.309,14.556-2.672,29.042-7.058,42.903-8.742,27.734-25.63,52.876-48.031,71.557-22.357,18.738-50.137,30.886-79.144,34.501-3.622.481-7.27.76-10.919.99-3.665.184-7.279.259-11.035.221-7.436-.094-14.811-.555-21.979-1.604-7.165-1.038-14.143-2.629-20.641-4.981-6.493-2.349-12.494-5.463-17.605-9.424-2.545-1.99-4.869-4.185-6.949-6.575-2.074-2.395-3.872-5.009-5.431-7.789-3.103-5.569-5.107-11.898-6.163-18.61-1.04-6.722-1.142-13.805-.565-20.967.575-7.168,1.861-14.419,3.557-21.637,1.727-7.23,3.893-14.394,6.394-21.564,2.55-7.322,5.214-14.618,7.974-21.885,5.524-14.533,11.403-28.963,17.592-43.265,6.2-14.296,12.687-28.478,19.475-42.488,6.8-13.985,13.866-27.897,21.48-41.184,1.141-1.979,2.3-3.939,3.471-5.86.471,1.416.939,2.838,1.4,4.266,4.729,14.742,9.088,29.805,13.344,44.86,8.441,30.158,16.329,60.524,23.892,90.914,1.894,7.597,3.751,15.2,5.556,22.808,1.834,7.601,3.621,15.207,5.327,22.815.009.039.017.078.026.117-6.108-7.084-12.814-13.631-20.047-19.507-9.795-8.034-20.581-14.779-31.914-20.176-11.362-5.348-23.275-9.343-35.412-11.847-1.795-.372-3.635.627-4.265,2.403-.689,1.94.325,4.07,2.265,4.759l.02.007c11.201,3.977,22,8.797,32.056,14.779,10.082,5.923,19.431,12.932,27.899,20.816,8.436,7.921,15.999,16.712,22.508,26.193,3.238,4.748,6.255,9.641,8.925,14.687,1.332,2.522,2.609,5.066,3.771,7.634.582,1.282,1.139,2.57,1.658,3.85l.747,1.905.34.926.261.767c1.256,3.681,4.844,6.24,8.917,6.01,4.903-.276,8.654-4.475,8.378-9.378l-.005-.083c-.246-4.362-.753-8.408-1.297-12.447-.555-4.025-1.184-7.992-1.851-11.937-1.337-7.888-2.82-15.692-4.425-23.458-1.594-7.767-3.261-15.502-4.979-23.219-1.748-7.71-3.545-15.401-5.379-23.081-7.385-30.706-15.472-61.185-24.018-91.587-4.284-15.211-8.648-30.369-13.508-45.581-1.227-3.81-2.484-7.616-3.88-11.501-.708-1.954-1.429-3.898-2.335-6.032-.23-.538-.475-1.092-.761-1.696-.291-.608-.599-1.242-1.11-2.113-.282-.459-.551-.932-1.24-1.797-.376-.438-.8-.998-1.943-1.896-1.292-1.12-4.329-2.201-5.644-2.117-1.732-.114-2.955.18-3.838.427-.961.29-1.496.547-2.093.842-.429.226-.937.524-1.224.722-.355.233-.639.442-.88.629-1.001.779-1.599,1.38-2.159,1.948-.55.566-1.006,1.081-1.428,1.578-.846.995-1.559,1.92-2.237,2.832-1.347,1.819-2.541,3.578-3.691,5.333-2.291,3.505-4.39,6.982-6.437,10.473-8.116,13.95-15.386,28.052-22.436,42.298-7.02,14.246-13.715,28.625-20.126,43.138-6.416,14.511-12.565,29.147-18.351,43.959-2.894,7.406-5.696,14.856-8.389,22.358-2.749,7.65-5.223,15.531-7.223,23.58-1.975,8.066-3.536,16.326-4.302,24.832-.768,8.495-.788,17.245.483,26.087,1.285,8.818,3.927,17.769,8.398,26.001,2.235,4.104,4.88,8.025,7.914,11.608,3.038,3.579,6.427,6.836,10.047,9.724,7.269,5.76,15.39,9.99,23.636,13.074,8.265,3.086,16.688,5.061,25.062,6.368,8.382,1.313,16.731,1.91,25.014,2.101,4.106.086,8.356.048,12.545-.124,4.199-.216,8.398-.5,12.578-1.007,16.724-1.93,33.199-6.267,48.719-12.875,15.517-6.615,30.072-15.475,43.095-26.2,13.027-10.721,24.527-23.303,34.035-37.266,9.508-13.963,16.97-29.328,22.118-45.436,10.306-32.24,11.207-67.342,2.347-100.029Z"/></svg>